<?xml version="1.0" encoding="UTF-8"?>
<svg version="1.1" xmlns="http://www.w3.org/2000/svg" width="48" height="48">
<path d="M0 0 C2.78575596 0.19435507 4.25094063 0.92721067 6.6875 2.1875 C7.3475 1.8575 8.0075 1.5275 8.6875 1.1875 C15.81393678 0.95761494 15.81393678 0.95761494 19.0625 1.8125 C19.59875 1.93625 20.135 2.06 20.6875 2.1875 C21.3475 1.5275 22.0075 0.8675 22.6875 0.1875 C25.3125 0.0625 25.3125 0.0625 27.6875 0.1875 C28.3475 1.8375 29.0075 3.4875 29.6875 5.1875 C29.0275 5.8475 28.3675 6.5075 27.6875 7.1875 C25.2125 6.6925 25.2125 6.6925 22.6875 6.1875 C22.6875 10.4775 22.6875 14.7675 22.6875 19.1875 C23.3475 19.1875 24.0075 19.1875 24.6875 19.1875 C25.0175 18.1975 25.3475 17.2075 25.6875 16.1875 C26.6775 16.5175 27.6675 16.8475 28.6875 17.1875 C28.64625 17.950625 28.605 18.71375 28.5625 19.5 C28.46669176 22.41468416 28.46669176 22.41468416 30.6875 25.1875 C30.94510279 27.88202521 30.77650053 30.47298375 30.6875 33.1875 C30.05585937 33.043125 29.42421875 32.89875 28.7734375 32.75 C17.40562836 30.3912615 6.16785759 30.87545913 -5.3125 32.1875 C-5.5625 24.5625 -5.5625 24.5625 -3.3125 21.1875 C-3.3125 19.8675 -3.3125 18.5475 -3.3125 17.1875 C-2.3225 16.8575 -1.3325 16.5275 -0.3125 16.1875 C0.6775 16.8475 1.6675 17.5075 2.6875 18.1875 C2.6875 14.2275 2.6875 10.2675 2.6875 6.1875 C1.0375 6.5175 -0.6125 6.8475 -2.3125 7.1875 C-3.3125 6.1875 -3.3125 6.1875 -3.4375 3.6875 C-3.27492626 0.43602524 -3.22675818 0.26162904 0 0 Z " fill="#3C3B3E" transform="translate(11.3125,7.8125)"/>
<path d="M0 0 C1 1 1 1 1 7 C-9.56 7 -20.12 7 -31 7 C-31 5.02 -31 3.04 -31 1 C-20.94830176 -3.30787067 -10.40883494 -2.90082285 0 0 Z " fill="#616162" transform="translate(39,31)"/>
<path d="M0 0 C0.78375 0.04125 1.5675 0.0825 2.375 0.125 C3.035 1.775 3.695 3.425 4.375 5.125 C3.715 5.785 3.055 6.445 2.375 7.125 C-0.25 6.75 -0.25 6.75 -2.625 6.125 C-2.50125 7.424375 -2.50125 7.424375 -2.375 8.75 C-2.68128741 12.88488007 -4.14608722 14.87142697 -6.625 18.125 C-7.2025 17.795 -7.78 17.465 -8.375 17.125 C-10.82383862 15.85424102 -10.82383862 15.85424102 -14.625 16.125 C-15.285 15.135 -15.945 14.145 -16.625 13.125 C-18.68425139 12.40117533 -18.68425139 12.40117533 -20.625 12.125 C-20.625 11.465 -20.625 10.805 -20.625 10.125 C-18.645 9.465 -16.665 8.805 -14.625 8.125 C-14.295 6.145 -13.965 4.165 -13.625 2.125 C-12.68527344 2.15980469 -12.68527344 2.15980469 -11.7265625 2.1953125 C-10.50066406 2.22238281 -10.50066406 2.22238281 -9.25 2.25 C-8.03183594 2.28480469 -8.03183594 2.28480469 -6.7890625 2.3203125 C-3.6267421 2.03490452 -3.32135959 0.15815998 0 0 Z " fill="#666456" transform="translate(36.625,7.875)"/>
<path d="M0 0 C0.68707555 2.49064888 1 4.37886292 1 7 C1.66 7 2.32 7 3 7 C3.33 6.01 3.66 5.02 4 4 C5.485 4.495 5.485 4.495 7 5 C6.95875 5.763125 6.9175 6.52625 6.875 7.3125 C6.77919176 10.22718416 6.77919176 10.22718416 9 13 C9.25760279 15.69452521 9.08900053 18.28548375 9 21 C8.36835937 20.855625 7.73671875 20.71125 7.0859375 20.5625 C-4.28187164 18.2037615 -15.51964241 18.68795913 -27 20 C-27 17.36 -27 14.72 -27 12 C-26.67 12 -26.34 12 -26 12 C-26 13.98 -26 15.96 -26 18 C-25.45794922 17.83773926 -24.91589844 17.67547852 -24.35742188 17.50830078 C-21.60897096 16.9156874 -19.09328713 16.87035625 -16.28125 16.8671875 C-15.18425781 16.86589844 -14.08726563 16.86460938 -12.95703125 16.86328125 C-11.81621094 16.86714844 -10.67539062 16.87101562 -9.5 16.875 C-8.35917969 16.87113281 -7.21835937 16.86726563 -6.04296875 16.86328125 C-4.94597656 16.86457031 -3.84898438 16.86585937 -2.71875 16.8671875 C-1.71779297 16.86831543 -0.71683594 16.86944336 0.31445312 16.87060547 C2.70540194 16.98580573 4.71584914 17.31624854 7 18 C6.505 15.03 6.505 15.03 6 12 C-1.98651182 10.54147036 -9.89963866 9.54576903 -18 9 C-17.34 8.01 -16.68 7.02 -16 6 C-15.34 6 -14.68 6 -14 6 C-14 6.66 -14 7.32 -14 8 C-11.36 7.67 -8.72 7.34 -6 7 C-6.33 5.68 -6.66 4.36 -7 3 C-5.68 3.66 -4.36 4.32 -3 5 C-2.01 3.35 -1.02 1.7 0 0 Z " fill="#252225" transform="translate(33,20)"/>
<path d="M0 0 C0 0.66 0 1.32 0 2 C-0.99 2 -1.98 2 -3 2 C-3 2.99 -3 3.98 -3 5 C-2.67 4.34 -2.34 3.68 -2 3 C-1.34 3 -0.68 3 0 3 C0 4.32 0 5.64 0 7 C-6.15234375 7.09765625 -6.15234375 7.09765625 -8 7 C-8.33 6.67 -8.66 6.34 -9 6 C-9.33 6.66 -9.66 7.32 -10 8 C-12.64860427 8.59355614 -15.29197322 8.74209269 -18 9 C-18 7.02 -18 5.04 -18 3 C-11.82081307 0.35177703 -6.64785644 -0.11267553 0 0 Z " fill="#A8A9A9" transform="translate(26,29)"/>
<path d="M0 0 C0.68707555 2.49064888 1 4.37886292 1 7 C1.66 7 2.32 7 3 7 C3.33 6.01 3.66 5.02 4 4 C4.99 4.33 5.98 4.66 7 5 C7 6.32 7 7.64 7 9 C2.9215811 11.2365523 -0.01750503 10.98603217 -4.44140625 10.359375 C-7.31031936 9.95641316 -10.17662768 9.69006025 -13.0625 9.4375 C-14.47208984 9.31181641 -14.47208984 9.31181641 -15.91015625 9.18359375 C-16.94462891 9.09271484 -16.94462891 9.09271484 -18 9 C-17.34 8.01 -16.68 7.02 -16 6 C-15.34 6 -14.68 6 -14 6 C-14 6.66 -14 7.32 -14 8 C-11.36 7.67 -8.72 7.34 -6 7 C-6.33 5.68 -6.66 4.36 -7 3 C-5.68 3.66 -4.36 4.32 -3 5 C-2.01 3.35 -1.02 1.7 0 0 Z " fill="#352F2E" transform="translate(33,20)"/>
<path d="M0 0 C4 0 4 0 5.8125 1.75 C7 4 7 4 6.8125 6.0625 C6 8 6 8 4 11 C2.68 11 1.36 11 0 11 C-0.66 10.01 -1.32 9.02 -2 8 C-4.05925139 7.27617533 -4.05925139 7.27617533 -6 7 C-6 6.34 -6 5.68 -6 5 C-4.02 4.34 -2.04 3.68 0 3 C0 2.01 0 1.02 0 0 Z " fill="#909091" transform="translate(22,13)"/>
<path d="M0 0 C0.99 0 1.98 0 3 0 C3 1.65 3 3.3 3 5 C1.02 5.66 -0.96 6.32 -3 7 C-3 7.66 -3 8.32 -3 9 C-1.35 9.33 0.3 9.66 2 10 C2.33 10.99 2.66 11.98 3 13 C4.32 13 5.64 13 7 13 C7.66 14.32 8.32 15.64 9 17 C6.69 17 4.38 17 2 17 C1.67 15.68 1.34 14.36 1 13 C-0.32 13 -1.64 13 -3 13 C-4.05049209 8.62294961 -4.32833696 6.64494761 -2.25 2.5625 C-1.5075 1.716875 -0.765 0.87125 0 0 Z " fill="#505D60" transform="translate(19,11)"/>
<path d="M0 0 C5.94 0.99 5.94 0.99 12 2 C12.33 3.32 12.66 4.64 13 6 C11.68 5.67 10.36 5.34 9 5 C9 4.34 9 3.68 9 3 C6.66924071 3.95865509 6.66924071 3.95865509 5 7 C5 5.35 5 3.7 5 2 C3.68 2 2.36 2 1 2 C1 3.32 1 4.64 1 6 C1.66 6 2.32 6 3 6 C3.33 5.34 3.66 4.68 4 4 C4 4.99 4 5.98 4 7 C2.68 7 1.36 7 0 7 C0 4.69 0 2.38 0 0 Z " fill="#C1C2C2" transform="translate(27,29)"/>
<path d="M0 0 C2.31 0.33 4.62 0.66 7 1 C8.25664978 3.90600261 9 5.79604584 9 9 C8.34 8.67 7.68 8.34 7 8 C6.67 8.66 6.34 9.32 6 10 C5.0234375 8.20963542 4.046875 6.41927083 3.0703125 4.62890625 C2.08589976 2.83381685 2.08589976 2.83381685 0 2 C0 1.34 0 0.68 0 0 Z " fill="#707743" transform="translate(23,10)"/>
<path d="M0 0 C1.32 0 2.64 0 4 0 C4 0.99 4 1.98 4 3 C4.66 3 5.32 3 6 3 C6.33 3.99 6.66 4.98 7 6 C4.36 6.33 1.72 6.66 -1 7 C-1.04254356 5.00045254 -1.04080783 2.99958364 -1 1 C-0.67 0.67 -0.34 0.34 0 0 Z " fill="#8F9090" transform="translate(9,31)"/>
<path d="M0 0 C1.2065625 0.0309375 1.2065625 0.0309375 2.4375 0.0625 C2.7675 1.3825 3.0975 2.7025 3.4375 4.0625 C2.7775 4.0625 2.1175 4.0625 1.4375 4.0625 C1.1075 5.0525 0.7775 6.0425 0.4375 7.0625 C-0.8825 6.7325 -2.2025 6.4025 -3.5625 6.0625 C-3.605221 4.39638095 -3.60313832 2.72867115 -3.5625 1.0625 C-2.5625 0.0625 -2.5625 0.0625 0 0 Z " fill="#656465" transform="translate(11.5625,7.9375)"/>
<path d="M0 0 C2 1.5 2 1.5 4 4 C4.35800135 6.75871627 4.18660165 9.20097524 4 12 C-2.75 10.25 -2.75 10.25 -5 8 C-2.69 8.33 -0.38 8.66 2 9 C1.55296014 4.52116304 1.55296014 4.52116304 -1 1 C-0.67 0.67 -0.34 0.34 0 0 Z " fill="#2E2D2F" transform="translate(38,29)"/>
<path d="M0 0 C1.32 0 2.64 0 4 0 C7 3.21428571 7 3.21428571 7 6 C6.01 6 5.02 6 4 6 C4 5.34 4 4.68 4 4 C2.68 4 1.36 4 0 4 C-0.33 4.99 -0.66 5.98 -1 7 C-1.66 6.67 -2.32 6.34 -3 6 C-2.67 5.01 -2.34 4.02 -2 3 C-1.34 3 -0.68 3 0 3 C0 2.01 0 1.02 0 0 Z " fill="#E2E2E2" transform="translate(22,13)"/>
<path d="M0 0 C0.99 0 1.98 0 3 0 C3 1.65 3 3.3 3 5 C1.5459375 5.433125 1.5459375 5.433125 0.0625 5.875 C-3.10664203 6.64214682 -3.10664203 6.64214682 -4 9 C-3.3543999 5.51375944 -2.07639763 2.87501211 0 0 Z " fill="#875243" transform="translate(19,11)"/>
<path d="M0 0 C3 1 3 1 4 3 C4.99 3.33 5.98 3.66 7 4 C7 4.99 7 5.98 7 7 C4.36 6.67 1.72 6.34 -1 6 C-0.67 4.02 -0.34 2.04 0 0 Z " fill="#8A8B8C" transform="translate(33,31)"/>
<path d="M0 0 C0.99 0.33 1.98 0.66 3 1 C3 2.32 3 3.64 3 5 C1.35 5.66 -0.3 6.32 -2 7 C-2.33 6.01 -2.66 5.02 -3 4 C-2.34 4 -1.68 4 -1 4 C-0.67 2.68 -0.34 1.36 0 0 Z " fill="#525153" transform="translate(37,24)"/>
<path d="M0 0 C-0.33 1.32 -0.66 2.64 -1 4 C-2.32 4 -3.64 4 -5 4 C-5 3.01 -5 2.02 -5 1 C-3 0 -3 0 0 0 Z " fill="#B14F2C" transform="translate(32,21)"/>
<path d="M0 0 C0.66 0 1.32 0 2 0 C2.33 0.99 2.66 1.98 3 3 C3.99 3.66 4.98 4.32 6 5 C5.67 5.66 5.34 6.32 5 7 C4.34 6.67 3.68 6.34 3 6 C2.67 6.66 2.34 7.32 2 8 C1.34 5.36 0.68 2.72 0 0 Z " fill="#93A23D" transform="translate(27,12)"/>
<path d="M0 0 C1.65 0 3.3 0 5 0 C5.66 1.65 6.32 3.3 7 5 C6.34 5.66 5.68 6.32 5 7 C4.01 6.67 3.02 6.34 2 6 C2.66 6 3.32 6 4 6 C4 4.68 4 3.36 4 2 C2.68 1.34 1.36 0.68 0 0 Z " fill="#2B292C" transform="translate(34,8)"/>
</svg>
