<?xml version="1.0" encoding="UTF-8"?>
<svg version="1.1" xmlns="http://www.w3.org/2000/svg" width="80" height="80">
<path d="M0 0 C2.8125 2.5625 2.8125 2.5625 5 5 C5.66 4.525625 6.32 4.05125 7 3.5625 C11.3412281 1.3014437 15.44419962 0.28346311 20.1875 1.61328125 C21.55218631 2.14259892 22.90462849 2.70533905 24.23828125 3.30859375 C26.15001564 4.18266653 26.15001564 4.18266653 29 4 C29.763125 3.154375 30.52625 2.30875 31.3125 1.4375 C34 -1 34 -1 37.125 -1.0625 C40.39396619 0.1455962 41.51567308 0.85671947 43 4 C42.58974359 8.41025641 42.58974359 8.41025641 41 10 C37.37940768 10.29356154 35.12296038 9.85064319 32 8 C31.86263944 10.82257594 31.86263944 10.82257594 32.5 12.75 C33.71693512 18.22620805 33.01771644 22.82960162 31 28 C32.32 28.99 33.64 29.98 35 31 C35.66 29.68 36.32 28.36 37 27 C38.875 27.25 38.875 27.25 41 28 C42.3125 29.8125 42.3125 29.8125 43 32 C42.814375 32.66 42.62875 33.32 42.4375 34 C42.293125 34.66 42.14875 35.32 42 36 C42.47179687 36.55171875 42.94359375 37.1034375 43.4296875 37.671875 C45.58229874 40.86330858 45.51087976 43.4350028 45.6875 47.25 C45.75324219 48.51328125 45.81898437 49.7765625 45.88671875 51.078125 C45.94279297 52.52445313 45.94279297 52.52445313 46 54 C45.28980713 53.84853516 44.57961426 53.69707031 43.84790039 53.54101562 C40.58800143 52.85131449 37.32535403 52.17557694 34.0625 51.5 C32.94552734 51.26152344 31.82855469 51.02304688 30.67773438 50.77734375 C21.05134684 48.80125247 12.98532094 48.54535806 3.375 50.4375 C0.58466447 50.96574287 -2.20703342 51.48586174 -5 52 C-6.28648438 52.23847656 -7.57296875 52.47695312 -8.8984375 52.72265625 C-10.43371094 52.85994141 -10.43371094 52.85994141 -12 53 C-14 51 -14 51 -14.1171875 48.3203125 C-14.03726562 47.26585937 -13.95734375 46.21140625 -13.875 45.125 C-13.81054688 44.07570312 -13.74609375 43.02640625 -13.6796875 41.9453125 C-12.88406393 38.49761038 -11.68263978 37.23014632 -9 35 C-9.33 34.67 -9.66 34.34 -10 34 C-10.1875 31.5625 -10.1875 31.5625 -10 29 C-9.34 28.34 -8.68 27.68 -8 27 C-5.9375 27.1875 -5.9375 27.1875 -4 28 C-3.67 28.99 -3.34 29.98 -3 31 C-1.68 29.68 -0.36 28.36 1 27 C0.67 26.319375 0.34 25.63875 0 24.9375 C-1.93903047 19.24159799 -1.15166811 14.51364954 1 9 C-0.32 9 -1.64 9 -3 9 C-3.33 9.33 -3.66 9.66 -4 10 C-6.4375 10.1875 -6.4375 10.1875 -9 10 C-9.66 9.34 -10.32 8.68 -11 8 C-10.9375 5.0625 -10.9375 5.0625 -10 2 C-6.57470968 -0.94955556 -4.22878504 -1.69151401 0 0 Z M4 31 C3.01 32.485 3.01 32.485 2 34 C3.65 33.67 5.3 33.34 7 33 C6.67 32.34 6.34 31.68 6 31 C5.34 31 4.68 31 4 31 Z M27 31 C26.34 31.66 25.68 32.32 25 33 C26.32 32.67 27.64 32.34 29 32 C28.34 31.67 27.68 31.34 27 31 Z " fill="#2B2729" transform="translate(24,14)"/>
<path d="M0 0 C2.34402262 3.66253535 2.2947685 6.72585673 2 11 C1 14.4375 1 14.4375 0 17 C1.32 17.99 2.64 18.98 4 20 C4.66 18.68 5.32 17.36 6 16 C7.875 16.25 7.875 16.25 10 17 C11.3125 18.8125 11.3125 18.8125 12 21 C11.7215625 21.99 11.7215625 21.99 11.4375 23 C11.293125 23.66 11.14875 24.32 11 25 C11.47179687 25.55171875 11.94359375 26.1034375 12.4296875 26.671875 C14.58229874 29.86330858 14.51087976 32.4350028 14.6875 36.25 C14.75324219 37.51328125 14.81898437 38.7765625 14.88671875 40.078125 C14.94279297 41.52445313 14.94279297 41.52445313 15 43 C14.28980713 42.84853516 13.57961426 42.69707031 12.84790039 42.54101562 C9.58800143 41.85131449 6.32535403 41.17557694 3.0625 40.5 C1.94552734 40.26152344 0.82855469 40.02304688 -0.32226562 39.77734375 C-9.94865316 37.80125247 -18.01467906 37.54535806 -27.625 39.4375 C-30.41533553 39.96574287 -33.20703342 40.48586174 -36 41 C-37.28648438 41.23847656 -38.57296875 41.47695312 -39.8984375 41.72265625 C-41.43371094 41.85994141 -41.43371094 41.85994141 -43 42 C-43.66 41.34 -44.32 40.68 -45 40 C-44.625 37.375 -44.625 37.375 -44 35 C-43.67 36.32 -43.34 37.64 -43 39 C-42.25234375 38.7834375 -41.5046875 38.566875 -40.734375 38.34375 C-39.74953125 38.0653125 -38.7646875 37.786875 -37.75 37.5 C-36.77546875 37.2215625 -35.8009375 36.943125 -34.796875 36.65625 C-32 36 -32 36 -28 36 C-28 34.35 -28 32.7 -28 31 C-27.34 31.99 -26.68 32.98 -26 34 C-24.03750513 34.0654165 -22.07137939 34.1178291 -20.109375 34.0390625 C-17.32855665 33.98756586 -14.71995014 34.45600997 -12 35 C-12 33.02 -12 31.04 -12 29 C-12.99 29 -13.98 29 -15 29 C-14.67 30.32 -14.34 31.64 -14 33 C-14.66 33 -15.32 33 -16 33 C-16 30.69 -16 28.38 -16 26 C-14.68 26.33 -13.36 26.66 -12 27 C-12.04125 26.21625 -12.0825 25.4325 -12.125 24.625 C-12 22 -12 22 -10 20 C-10.66 19.34 -11.32 18.68 -12 18 C-11.625 14.875 -11.625 14.875 -11 12 C-10.67 12 -10.34 12 -10 12 C-9.505 14.475 -9.505 14.475 -9 17 C-6.58354218 17.16687448 -6.58354218 17.16687448 -4 17 C-1.4345406 14.4345406 -1.45953913 12.52313332 -1 9 C-2.32 8.01 -3.64 7.02 -5 6 C-3.68 6 -2.36 6 -1 6 C-0.67 4.02 -0.34 2.04 0 0 Z M-4 20 C-4.66 20.66 -5.32 21.32 -6 22 C-4.68 21.67 -3.36 21.34 -2 21 C-2.66 20.67 -3.32 20.34 -4 20 Z " fill="#302F30" transform="translate(55,25)"/>
<path d="M0 0 C2.67755551 1.08241606 3.51526286 1.49882084 5.1875 3.9375 C5.435 4.8346875 5.435 4.8346875 5.6875 5.75 C5.3575 6.08 5.0275 6.41 4.6875 6.75 C5.6775 7.08 6.6675 7.41 7.6875 7.75 C8.0175 9.73 8.3475 11.71 8.6875 13.75 C7.6975 13.75 6.7075 13.75 5.6875 13.75 C6.6775 14.41 7.6675 15.07 8.6875 15.75 C6.9375 22.5 6.9375 22.5 4.6875 24.75 C2.0625 24.875 2.0625 24.875 -0.3125 24.75 C-0.9725 23.43 -1.6325 22.11 -2.3125 20.75 C-2.6425 21.08 -2.9725 21.41 -3.3125 21.75 C-5.31208364 21.79080783 -7.31295254 21.79254356 -9.3125 21.75 C-9.6425 20.1 -9.9725 18.45 -10.3125 16.75 C-11.9625 16.42 -13.6125 16.09 -15.3125 15.75 C-15.3125 13.44 -15.3125 11.13 -15.3125 8.75 C-16.3025 8.42 -17.2925 8.09 -18.3125 7.75 C-18.1875 5.5 -18.1875 5.5 -17.3125 2.75 C-11.73520028 -2.16333547 -6.82126728 -2.23263902 0 0 Z " fill="#735838" transform="translate(46.3125,18.25)"/>
<path d="M0 0 C1.875 0.25 1.875 0.25 4 1 C5.3125 2.875 5.3125 2.875 6 5 C5 8 5 8 3 10 C3.99 10.99 4.98 11.98 6 13 C6 16.3 6 19.6 6 23 C-1.26 21.68 -8.52 20.36 -16 19 C-16 15.37 -16 11.74 -16 8 C-12.37 8 -8.74 8 -5 8 C-6.32 6.02 -7.64 4.04 -9 2 C-8.01 1.67 -7.02 1.34 -6 1 C-3.8125 2.4375 -3.8125 2.4375 -2 4 C-1.34 2.68 -0.68 1.36 0 0 Z " fill="#2D2A2C" transform="translate(61,41)"/>
<path d="M0 0 C1.79244141 0.01740234 1.79244141 0.01740234 3.62109375 0.03515625 C5.41740234 0.04869141 5.41740234 0.04869141 7.25 0.0625 C8.17683594 0.07410156 9.10367188 0.08570313 10.05859375 0.09765625 C10.05859375 1.08765625 10.05859375 2.07765625 10.05859375 3.09765625 C8.73859375 2.76765625 7.41859375 2.43765625 6.05859375 2.09765625 C6.05859375 4.40765625 6.05859375 6.71765625 6.05859375 9.09765625 C6.71859375 9.09765625 7.37859375 9.09765625 8.05859375 9.09765625 C7.72859375 7.77765625 7.39859375 6.45765625 7.05859375 5.09765625 C8.04859375 5.09765625 9.03859375 5.09765625 10.05859375 5.09765625 C10.05859375 7.07765625 10.05859375 9.05765625 10.05859375 11.09765625 C7.74615583 11.12451037 5.43363105 11.14398466 3.12109375 11.16015625 C1.83332031 11.17175781 0.54554687 11.18335938 -0.78125 11.1953125 C-3.94140625 11.09765625 -3.94140625 11.09765625 -4.94140625 10.09765625 C-5.27140625 10.75765625 -5.60140625 11.41765625 -5.94140625 12.09765625 C-8.2738844 12.72618559 -10.63432092 13.25300871 -13.00390625 13.72265625 C-14.93943359 14.11324219 -14.93943359 14.11324219 -16.9140625 14.51171875 C-17.91308594 14.70507812 -18.91210938 14.8984375 -19.94140625 15.09765625 C-20.04965468 13.49497805 -20.1271127 11.89019877 -20.19140625 10.28515625 C-20.2378125 9.39183594 -20.28421875 8.49851562 -20.33203125 7.578125 C-19.94140625 5.09765625 -19.94140625 5.09765625 -18.03515625 3.31640625 C-14.52857327 1.27526093 -11.75350497 1.0620092 -7.75390625 1.09765625 C-6.49578125 1.09765625 -5.23765625 1.09765625 -3.94140625 1.09765625 C-2.94140625 0.09765625 -2.94140625 0.09765625 0 0 Z " fill="#A1A1A2" transform="translate(32.94140625,48.90234375)"/>
<path d="M0 0 C1.98 0 3.96 0 6 0 C6.33 1.65 6.66 3.3 7 5 C8.65 5.33 10.3 5.66 12 6 C12 7.98 12 9.96 12 12 C11.38125 12.061875 10.7625 12.12375 10.125 12.1875 C7.72238859 12.828919 7.72238859 12.828919 6.75 15.5625 C6.5025 16.366875 6.255 17.17125 6 18 C4.02 18 2.04 18 0 18 C-0.33 16.35 -0.66 14.7 -1 13 C-2.65 12.67 -4.3 12.34 -6 12 C-6 10.02 -6 8.04 -6 6 C-5.195625 5.7525 -4.39125 5.505 -3.5625 5.25 C-0.828919 4.27761141 -0.828919 4.27761141 -0.1875 1.875 C-0.125625 1.25625 -0.06375 0.6375 0 0 Z " fill="#979899" transform="translate(37,22)"/>
<path d="M0 0 C2.5 1.1875 2.5 1.1875 5 3 C5.3125 5.6875 5.3125 5.6875 5 8 C6.65 8.33 8.3 8.66 10 9 C10.33 10.65 10.66 12.3 11 14 C12.98 14 14.96 14 17 14 C17.99 15.98 18.98 17.96 20 20 C19.01 20.33 18.02 20.66 17 21 C17 21.66 17 22.32 17 23 C13.45124947 23.19715281 10.90442032 23.17831524 8 21 C7.27090544 18.56968481 7 16.52838375 7 14 C4.69 13.67 2.38 13.34 0 13 C-1.29721449 9.10835652 -1.13033993 6.10570774 -1 2 C-0.67 1.34 -0.34 0.68 0 0 Z " fill="#414752" transform="translate(26,26)"/>
<path d="M0 0 C1.9375 1.75 1.9375 1.75 3 4 C2.58974359 8.41025641 2.58974359 8.41025641 1 10 C-2.62059232 10.29356154 -4.87703962 9.85064319 -8 8 C-9.231394 10.46278801 -9.07159196 12.2795055 -9 15 C-9.66 14.67 -10.32 14.34 -11 14 C-10.67 13.34 -10.34 12.68 -10 12 C-11.32 11.67 -12.64 11.34 -14 11 C-13.67 10.34 -13.34 9.68 -13 9 C-15.33285443 5.50071836 -16.20795069 5.3670902 -20.125 4.3125 C-21.03507812 4.06113281 -21.94515625 3.80976563 -22.8828125 3.55078125 C-23.58148438 3.36902344 -24.28015625 3.18726563 -25 3 C-25 2.67 -25 2.34 -25 2 C-19.73946963 1.68436818 -16.55426184 2.33409063 -12 5 C-11.071875 3.7934375 -11.071875 3.7934375 -10.125 2.5625 C-6.77390227 -1.47852961 -4.97521107 -1.31995396 0 0 Z " fill="#32302B" transform="translate(64,14)"/>
<path d="M0 0 C1.98 0 3.96 0 6 0 C5.67 0.99 5.34 1.98 5 3 C4.34 2.67 3.68 2.34 3 2 C3 2.66 3 3.32 3 4 C3.66 4 4.32 4 5 4 C5 4.99 5 5.98 5 7 C4.34 7 3.68 7 3 7 C3 7.66 3 8.32 3 9 C4.65 9 6.3 9 8 9 C8 6.69 8 4.38 8 2 C10.375 1.875 10.375 1.875 13 2 C15 4 15 4 15.1953125 6.3828125 C15.17210938 7.28773437 15.14890625 8.19265625 15.125 9.125 C15.10695313 10.03507812 15.08890625 10.94515625 15.0703125 11.8828125 C15.04710938 12.58148438 15.02390625 13.28015625 15 14 C13.041036 13.69147815 11.08284287 13.3780582 9.125 13.0625 C7.48917969 12.80146484 7.48917969 12.80146484 5.8203125 12.53515625 C3 12 3 12 1 11 C0.5859375 8.49609375 0.5859375 8.49609375 0.375 5.4375 C0.30023438 4.42558594 0.22546875 3.41367187 0.1484375 2.37109375 C0.09945312 1.58863281 0.05046875 0.80617187 0 0 Z " fill="#CCCCCD" transform="translate(52,50)"/>
<path d="M0 0 C0.66 0.99 1.32 1.98 2 3 C3.94033542 3.06577408 5.88433718 3.11708333 7.82421875 3.0390625 C10.96683316 2.98264213 13.90410844 3.48401807 17 4 C16.67 4.99 16.34 5.98 16 7 C15.06800781 7.03738281 14.13601562 7.07476562 13.17578125 7.11328125 C5.38552732 7.51500314 -1.72680973 8.40181701 -9.29296875 10.4765625 C-11.99106723 10.99827274 -13.44538323 10.91454061 -16 10 C-16.33 8.35 -16.66 6.7 -17 5 C-16.34 4.67 -15.68 4.34 -15 4 C-15 5.32 -15 6.64 -15 8 C-14.25234375 7.7834375 -13.5046875 7.566875 -12.734375 7.34375 C-11.74953125 7.0653125 -10.7646875 6.786875 -9.75 6.5 C-8.77546875 6.2215625 -7.8009375 5.943125 -6.796875 5.65625 C-4 5 -4 5 0 5 C0 3.35 0 1.7 0 0 Z " fill="#2B292A" transform="translate(27,56)"/>
<path d="M0 0 C2.35930537 3.68641465 2.43072427 6.69275735 2 11 C0.87429501 13.79468501 -0.48588788 16.3976198 -2 19 C-1.505 19.45375 -1.01 19.9075 -0.5 20.375 C1 22 1 22 1 24 C-5.435 24.495 -5.435 24.495 -12 25 C-12 22 -12 22 -10 20 C-10.66 19.34 -11.32 18.68 -12 18 C-11.625 14.875 -11.625 14.875 -11 12 C-10.67 12 -10.34 12 -10 12 C-9.67 13.65 -9.34 15.3 -9 17 C-6.58354218 17.16687448 -6.58354218 17.16687448 -4 17 C-1.4345406 14.4345406 -1.45953913 12.52313332 -1 9 C-2.32 8.01 -3.64 7.02 -5 6 C-3.68 6 -2.36 6 -1 6 C-0.67 4.02 -0.34 2.04 0 0 Z M-4 20 C-4.66 20.66 -5.32 21.32 -6 22 C-4.68 21.67 -3.36 21.34 -2 21 C-2.66 20.67 -3.32 20.34 -4 20 Z " fill="#2C2A26" transform="translate(55,25)"/>
<path d="M0 0 C1.98 0 3.96 0 6 0 C6.33 1.65 6.66 3.3 7 5 C8.32 5.33 9.64 5.66 11 6 C11 7.32 11 8.64 11 10 C9.68 10 8.36 10 7 10 C6.34 9.01 5.68 8.02 5 7 C3.68 7 2.36 7 1 7 C0.67 8.32 0.34 9.64 0 11 C-1.98 11 -3.96 11 -6 11 C-6 9.35 -6 7.7 -6 6 C-5.195625 5.7525 -4.39125 5.505 -3.5625 5.25 C-0.828919 4.27761141 -0.828919 4.27761141 -0.1875 1.875 C-0.125625 1.25625 -0.06375 0.6375 0 0 Z " fill="#F4F4F5" transform="translate(37,22)"/>
<path d="M0 0 C0.66 0.99 1.32 1.98 2 3 C1.67 3.99 1.34 4.98 1 6 C-0.98 6 -2.96 6 -5 6 C-5.33 6.99 -5.66 7.98 -6 9 C-8.375 10.3125 -8.375 10.3125 -11 11 C-11.99 10.34 -12.98 9.68 -14 9 C-13.875 6.75 -13.875 6.75 -13 4 C-8.77592227 0.27878867 -5.59092361 -0.75262433 0 0 Z " fill="#B8512D" transform="translate(42,17)"/>
<path d="M0 0 C0.86625 0.495 0.86625 0.495 1.75 1 C4.19883862 2.27075898 4.19883862 2.27075898 8 2 C10.20067421 1.06716704 10.20067421 1.06716704 12 0 C11.01 1.98 10.02 3.96 9 6 C10.65 6 12.3 6 14 6 C13.34 6.66 12.68 7.32 12 8 C10.948125 7.979375 9.89625 7.95875 8.8125 7.9375 C4.32771985 8.01102099 1.97862494 9.05128574 -2 11 C-2.33 14.3 -2.66 17.6 -3 21 C-5.14165671 16.71668658 -5.5030051 14.6947143 -5 10 C-3.70766393 8.62689293 -2.37562854 7.28965176 -1 6 C-0.74930087 3.37429296 -0.74930087 3.37429296 -1 1 C-0.67 0.67 -0.34 0.34 0 0 Z " fill="#353334" transform="translate(16,43)"/>
<path d="M0 0 C0 3.3 0 6.6 0 10 C0.66 10.33 1.32 10.66 2 11 C-1.3 11.66 -4.6 12.32 -8 13 C-8.390625 5.48046875 -8.390625 5.48046875 -8 3 C-5.17228918 0.07844922 -4.21120745 0 0 0 Z " fill="#848485" transform="translate(21,51)"/>
<path d="M0 0 C2.45882414 1.63921609 3.54125433 2.47376163 5 5 C5.74949225 9.66057507 5.92980908 14.2844461 6 19 C1.71 18.01 -2.58 17.02 -7 16 C-5 14 -5 14 -2 13.8125 C1 14 1 14 3 15 C2.835 14.278125 2.67 13.55625 2.5 12.8125 C2 10 2 10 2.125 7.4375 C1.97046704 4.42410721 0.9711947 3.21759404 -1 1 C-0.67 0.67 -0.34 0.34 0 0 Z " fill="#2A2829" transform="translate(64,49)"/>
<path d="M0 0 C2.97 0.495 2.97 0.495 6 1 C6.33 2.98 6.66 4.96 7 7 C9.64 7.33 12.28 7.66 15 8 C11.40537669 10.25998595 8.43404325 10.20868087 4.25 10.125 C3.07953125 10.10695313 1.9090625 10.08890625 0.703125 10.0703125 C-0.63492187 10.03550781 -0.63492187 10.03550781 -2 10 C-1.84660156 9.39542969 -1.69320313 8.79085937 -1.53515625 8.16796875 C-0.44173003 4.1301623 -0.44173003 4.1301623 0 0 Z M1 6 C0.01 7.485 0.01 7.485 -1 9 C0.65 8.67 2.3 8.34 4 8 C3.67 7.34 3.34 6.68 3 6 C2.34 6 1.68 6 1 6 Z " fill="#2A292A" transform="translate(27,39)"/>
<path d="M0 0 C6.64615385 1.47692308 6.64615385 1.47692308 8.4375 4.125 C8.7159375 5.053125 8.7159375 5.053125 9 6 C8.67 6.33 8.34 6.66 8 7 C8.99 7.33 9.98 7.66 11 8 C11.33 9.98 11.66 11.96 12 14 C10.35 13.67 8.7 13.34 7 13 C7 11.68 7 10.36 7 9 C5.02 8.34 3.04 7.68 1 7 C0.67 4.69 0.34 2.38 0 0 Z " fill="#99AB24" transform="translate(43,18)"/>
<path d="M0 0 C3.34373475 0.55728913 6.03312999 1.35173889 9 3 C8.67 4.65 8.34 6.3 8 8 C6.35 8 4.7 8 3 8 C2.34 6.68 1.68 5.36 1 4 C-0.98 4.66 -2.96 5.32 -5 6 C-3.35 4.02 -1.7 2.04 0 0 Z " fill="#616061" transform="translate(58,15)"/>
<path d="M0 0 C1.65 0 3.3 0 5 0 C5.33 0.99 5.66 1.98 6 3 C4.68 2.67 3.36 2.34 2 2 C2 4.31 2 6.62 2 9 C2.66 9 3.32 9 4 9 C3.67 7.68 3.34 6.36 3 5 C4.32 5 5.64 5 7 5 C7 6.98 7 8.96 7 11 C4.69 11 2.38 11 0 11 C0 7.37 0 3.74 0 0 Z " fill="#B3B3B4" transform="translate(45,49)"/>
<path d="M0 0 C1.98 0 3.96 0 6 0 C5.67 0.99 5.34 1.98 5 3 C4.34 2.67 3.68 2.34 3 2 C3 2.66 3 3.32 3 4 C3.66 4 4.32 4 5 4 C5 4.99 5 5.98 5 7 C4.34 7 3.68 7 3 7 C3 7.66 3 8.32 3 9 C4.65 9 6.3 9 8 9 C8.33 8.34 8.66 7.68 9 7 C8.67 8.65 8.34 10.3 8 12 C5.69 11.67 3.38 11.34 1 11 C0.67 7.37 0.34 3.74 0 0 Z " fill="#AAABAC" transform="translate(52,50)"/>
<path d="M0 0 C3.33775938 1.22113148 4.57089065 3.06073094 6.5625 5.9375 C5.799375 5.710625 5.03625 5.48375 4.25 5.25 C3.363125 5.146875 2.47625 5.04375 1.5625 4.9375 C0.54230427 5.9168879 -0.45899805 6.91645449 -1.4375 7.9375 C-3.625 7.625 -3.625 7.625 -5.4375 6.9375 C-5.625 4.5625 -5.625 4.5625 -5.4375 1.9375 C-2.4375 -0.0625 -2.4375 -0.0625 0 0 Z " fill="#8E8F8F" transform="translate(20.4375,15.0625)"/>
<path d="M0 0 C1.2065625 0.0309375 1.2065625 0.0309375 2.4375 0.0625 C2.4375 2.0425 2.4375 4.0225 2.4375 6.0625 C2.1075 4.7425 1.7775 3.4225 1.4375 2.0625 C0.4475 2.0625 -0.5425 2.0625 -1.5625 2.0625 C-1.5625 3.3825 -1.5625 4.7025 -1.5625 6.0625 C-2.2225 6.0625 -2.8825 6.0625 -3.5625 6.0625 C-3.8925 7.3825 -4.2225 8.7025 -4.5625 10.0625 C-5.2225 7.7525 -5.8825 5.4425 -6.5625 3.0625 C-6.8925 4.0525 -7.2225 5.0425 -7.5625 6.0625 C-8.2225 6.0625 -8.8825 6.0625 -9.5625 6.0625 C-9.5625 5.0725 -9.5625 4.0825 -9.5625 3.0625 C-10.2225 2.4025 -10.8825 1.7425 -11.5625 1.0625 C-10.263125 1.083125 -8.96375 1.10375 -7.625 1.125 C-6.27084367 1.14649454 -4.91493917 1.13398199 -3.5625 1.0625 C-2.5625 0.0625 -2.5625 0.0625 0 0 Z " fill="#8E8E8F" transform="translate(32.5625,48.9375)"/>
<path d="M0 0 C1.98 0 3.96 0 6 0 C6 0.99 6 1.98 6 3 C4.68 2.67 3.36 2.34 2 2 C2 4.31 2 6.62 2 9 C2.66 9 3.32 9 4 9 C3.67 7.68 3.34 6.36 3 5 C3.99 5 4.98 5 6 5 C6 6.98 6 8.96 6 11 C4.02 11 2.04 11 0 11 C0 7.37 0 3.74 0 0 Z " fill="#B6B7B8" transform="translate(37,49)"/>
<path d="M0 0 C0.66 0.33 1.32 0.66 2 1 C1.67 2.32 1.34 3.64 1 5 C2.32 5.33 3.64 5.66 5 6 C3.68 6.33 2.36 6.66 1 7 C0.67 8.32 0.34 9.64 0 11 C-1.98 11 -3.96 11 -6 11 C-6 9.35 -6 7.7 -6 6 C-5.195625 5.7525 -4.39125 5.505 -3.5625 5.25 C-0.828919 4.27761141 -0.828919 4.27761141 -0.1875 1.875 C-0.125625 1.25625 -0.06375 0.6375 0 0 Z " fill="#EFEFF0" transform="translate(37,22)"/>
<path d="M0 0 C0.66 0.99 1.32 1.98 2 3 C3.94033542 3.06577408 5.88433718 3.11708333 7.82421875 3.0390625 C10.96683316 2.98264213 13.90410844 3.48401807 17 4 C16.67 4.99 16.34 5.98 16 7 C14.02 7 12.04 7 10 7 C10 6.34 10 5.68 10 5 C9.443125 5.165 8.88625 5.33 8.3125 5.5 C5.81518471 6.03996006 3.54715442 6 1 6 C0.01 6.495 0.01 6.495 -1 7 C-1.99 6.34 -2.98 5.68 -4 5 C-2.68 5 -1.36 5 0 5 C0 3.35 0 1.7 0 0 Z " fill="#343334" transform="translate(27,56)"/>
<path d="M0 0 C0.66 0.99 1.32 1.98 2 3 C1.67 3.99 1.34 4.98 1 6 C-1.31 6 -3.62 6 -6 6 C-6 4.68 -6 3.36 -6 2 C-6.99 1.67 -7.98 1.34 -9 1 C-5.95699684 -0.52150158 -3.345915 -0.23899393 0 0 Z " fill="#585540" transform="translate(42,17)"/>
<path d="M0 0 C0.86625 0.4640625 0.86625 0.4640625 1.75 0.9375 C3.84294184 1.92583364 5.74535275 2.5168613 8 3 C8.66 2.01 9.32 1.02 10 0 C10.99 0.33 11.98 0.66 13 1 C12.67 2.65 12.34 4.3 12 6 C9.9375 6.875 9.9375 6.875 7 7 C4.38270898 5.29119016 2.13674187 3.27837029 0 1 C0 0.67 0 0.34 0 0 Z " fill="#6D6E6F" transform="translate(52,43)"/>
<path d="M0 0 C1.65 0.99 3.3 1.98 5 3 C4.67 4.98 4.34 6.96 4 9 C2.35 9.33 0.7 9.66 -1 10 C-1.125 2.25 -1.125 2.25 0 0 Z " fill="#545769" transform="translate(26,26)"/>
<path d="M0 0 C-0.33 0.66 -0.66 1.32 -1 2 C-1.66 1.67 -2.32 1.34 -3 1 C-2.690625 1.928125 -2.690625 1.928125 -2.375 2.875 C-2.25125 3.57625 -2.1275 4.2775 -2 5 C-2.66 5.66 -3.32 6.32 -4 7 C-6.125 6.625 -6.125 6.625 -8 6 C-8 4.35 -8 2.7 -8 1 C-3.375 -1.125 -3.375 -1.125 0 0 Z " fill="#BD522D" transform="translate(53,36)"/>
<path d="M0 0 C0.86625 0.495 0.86625 0.495 1.75 1 C4.19883862 2.27075898 4.19883862 2.27075898 8 2 C10.20067421 1.06716704 10.20067421 1.06716704 12 0 C9.04304245 4.1745283 9.04304245 4.1745283 7 6 C3.8125 6.5 3.8125 6.5 1 6 C0.34 5.34 -0.32 4.68 -1 4 C-0.625 1.875 -0.625 1.875 0 0 Z " fill="#737475" transform="translate(16,43)"/>
<path d="M0 0 C1.65 0 3.3 0 5 0 C5.99 1.98 6.98 3.96 8 6 C7.01 6.33 6.02 6.66 5 7 C5 7.66 5 8.32 5 9 C3.35 9 1.7 9 0 9 C1.875 3.25 1.875 3.25 3 1 C2.01 0.67 1.02 0.34 0 0 Z " fill="#666E4E" transform="translate(38,40)"/>
<path d="M0 0 C0.66 0 1.32 0 2 0 C2 2.97 2 5.94 2 9 C1.34 9 0.68 9 0 9 C0 7.35 0 5.7 0 4 C-0.99 4 -1.98 4 -3 4 C-2.67 5.32 -2.34 6.64 -2 8 C-2.66 8 -3.32 8 -4 8 C-4 5.69 -4 3.38 -4 1 C-2.68 1.33 -1.36 1.66 0 2 C0 1.34 0 0.68 0 0 Z " fill="#656666" transform="translate(43,50)"/>
<path d="M0 0 C2 3 2 3 1.625 5.6875 C1.41875 6.450625 1.2125 7.21375 1 8 C0.34 7.67 -0.32 7.34 -1 7 C-1 5.68 -1 4.36 -1 3 C-3.97 2.505 -3.97 2.505 -7 2 C-7 1.34 -7 0.68 -7 0 C-3.86559131 -1.0448029 -2.97903963 -1.15317663 0 0 Z " fill="#516F84" transform="translate(34,37)"/>
<path d="M0 0 C1.4540625 0.0309375 1.4540625 0.0309375 2.9375 0.0625 C2.751875 0.68125 2.56625 1.3 2.375 1.9375 C1.70063824 4.10410178 1.70063824 4.10410178 2.9375 6.0625 C0.9575 6.0625 -1.0225 6.0625 -3.0625 6.0625 C-3.44468767 4.40635343 -3.77645102 2.73792976 -4.0625 1.0625 C-3.0625 0.0625 -3.0625 0.0625 0 0 Z " fill="#B6B7B9" transform="translate(40.0625,33.9375)"/>
<path d="M0 0 C1.23556641 0.01740234 1.23556641 0.01740234 2.49609375 0.03515625 C3.32238281 0.04417969 4.14867187 0.05320313 5 0.0625 C5.63808594 0.07410156 6.27617188 0.08570313 6.93359375 0.09765625 C6.60359375 0.75765625 6.27359375 1.41765625 5.93359375 2.09765625 C3.06176788 2.57384437 0.26239228 2.93933222 -2.62890625 3.22265625 C-3.43521484 3.30902344 -4.24152344 3.39539063 -5.07226562 3.484375 C-7.06944689 3.69709253 -9.06783362 3.8984348 -11.06640625 4.09765625 C-11.06640625 3.43765625 -11.06640625 2.77765625 -11.06640625 2.09765625 C-9.015625 1.86979167 -6.96484375 1.64192708 -4.9140625 1.4140625 C-2.61783848 1.0208402 -2.39679667 0.11327016 0 0 Z " fill="#242223" transform="translate(30.06640625,60.90234375)"/>
<path d="M0 0 C0.78375 0.04125 1.5675 0.0825 2.375 0.125 C2.375 0.785 2.375 1.445 2.375 2.125 C0.725 2.125 -0.925 2.125 -2.625 2.125 C-2.625 4.765 -2.625 7.405 -2.625 10.125 C-1.965 10.455 -1.305 10.785 -0.625 11.125 C-1.945 11.455 -3.265 11.785 -4.625 12.125 C-4.67895478 10.50036158 -4.71777195 8.87521459 -4.75 7.25 C-4.77320313 6.34507813 -4.79640625 5.44015625 -4.8203125 4.5078125 C-4.53030547 0.96972669 -3.50613188 0.16695866 0 0 Z " fill="#CECECF" transform="translate(17.625,51.875)"/>
<path d="M0 0 C1.32 0.33 2.64 0.66 4 1 C3.34 1 2.68 1 2 1 C2.33 1.66 2.66 2.32 3 3 C3.06950541 4.54023996 3.08452357 6.08334988 3.0625 7.625 C3.05347656 8.44226562 3.04445313 9.25953125 3.03515625 10.1015625 C3.02355469 10.72804688 3.01195312 11.35453125 3 12 C2.67 12 2.34 12 2 12 C2 9.69 2 7.38 2 5 C0.68 5 -0.64 5 -2 5 C-1.67 6.32 -1.34 7.64 -1 9 C-1.66 9 -2.32 9 -3 9 C-3 6.69 -3 4.38 -3 2 C-1.68 2.33 -0.36 2.66 1 3 C0.67 2.01 0.34 1.02 0 0 Z " fill="#525353" transform="translate(50,49)"/>
<path d="M0 0 C0.33 0 0.66 0 1 0 C1.0825 0.78375 1.165 1.5675 1.25 2.375 C1.72806339 5.14749104 1.72806339 5.14749104 4.0625 6.3125 C4.701875 6.539375 5.34125 6.76625 6 7 C5.01 7.99 4.02 8.98 3 10 C3.33 10.66 3.66 11.32 4 12 C2.35 12.33 0.7 12.66 -1 13 C-1 10 -1 10 1 8 C0.34 7.34 -0.32 6.68 -1 6 C-0.625 2.875 -0.625 2.875 0 0 Z " fill="#423636" transform="translate(44,37)"/>
<path d="M0 0 C-0.66 0 -1.32 0 -2 0 C-2 2.31 -2 4.62 -2 7 C-3.65 7 -5.3 7 -7 7 C-7 6.34 -7 5.68 -7 5 C-6.34 5 -5.68 5 -5 5 C-5 4.01 -5 3.02 -5 2 C-5.66 2 -6.32 2 -7 2 C-7 1.34 -7 0.68 -7 0 C-3.86650268 -1.04449911 -3.01031744 -0.93423645 0 0 Z " fill="#656566" transform="translate(62,52)"/>
<path d="M0 0 C1.98 0 3.96 0 6 0 C5.67 0.99 5.34 1.98 5 3 C4.34 2.67 3.68 2.34 3 2 C3 2.66 3 3.32 3 4 C3.66 4 4.32 4 5 4 C5 4.66 5 5.32 5 6 C3.68 6 2.36 6 1 6 C0.67 4.02 0.34 2.04 0 0 Z " fill="#DFDFE0" transform="translate(52,50)"/>
<path d="M0 0 C0.33 0.66 0.66 1.32 1 2 C0.67 2.66 0.34 3.32 0 4 C1.32 4 2.64 4 4 4 C4.33 3.34 4.66 2.68 5 2 C5.66 2 6.32 2 7 2 C7 2.99 7 3.98 7 5 C4.6875 6.125 4.6875 6.125 2 7 C1.01 6.34 0.02 5.68 -1 5 C-0.67 3.35 -0.34 1.7 0 0 Z " fill="#744232" transform="translate(29,21)"/>
<path d="M0 0 C2.475 0.495 2.475 0.495 5 1 C5 2.32 5 3.64 5 5 C3.35 5 1.7 5 0 5 C0 3.35 0 1.7 0 0 Z " fill="#2F2F30" transform="translate(38,28)"/>
<path d="M0 0 C2.475 0.99 2.475 0.99 5 2 C5 3.32 5 4.64 5 6 C3.68 6 2.36 6 1 6 C-0.0625 4.125 -0.0625 4.125 -1 2 C-0.67 1.34 -0.34 0.68 0 0 Z " fill="#E5E6E6" transform="translate(43,26)"/>
<path d="M0 0 C1.65 0.33 3.3 0.66 5 1 C5.33 2.32 5.66 3.64 6 5 C3.61435923 4.42415568 1.33317216 3.77772405 -1 3 C-0.67 2.01 -0.34 1.02 0 0 Z " fill="#EBEBEB" transform="translate(58,15)"/>
<path d="M0 0 C1.2065625 0.0309375 1.2065625 0.0309375 2.4375 0.0625 C2.4375 2.0425 2.4375 4.0225 2.4375 6.0625 C2.1075 4.7425 1.7775 3.4225 1.4375 2.0625 C0.4475 2.0625 -0.5425 2.0625 -1.5625 2.0625 C-1.5625 3.3825 -1.5625 4.7025 -1.5625 6.0625 C-2.2225 6.0625 -2.8825 6.0625 -3.5625 6.0625 C-3.605221 4.39638095 -3.60313832 2.72867115 -3.5625 1.0625 C-2.5625 0.0625 -2.5625 0.0625 0 0 Z " fill="#E7E7E7" transform="translate(32.5625,48.9375)"/>
<path d="M0 0 C2.97 0.495 2.97 0.495 6 1 C6.33 2.32 6.66 3.64 7 5 C4 5 4 5 1.8125 3.0625 C0 1 0 1 0 0 Z " fill="#3A4751" transform="translate(27,39)"/>
<path d="M0 0 C1.65 0 3.3 0 5 0 C5.33 0.99 5.66 1.98 6 3 C4.68 2.67 3.36 2.34 2 2 C2 3.32 2 4.64 2 6 C1.34 6 0.68 6 0 6 C0 4.02 0 2.04 0 0 Z " fill="#E3E4E4" transform="translate(45,49)"/>
<path d="M0 0 C1.98 0 3.96 0 6 0 C6 0.99 6 1.98 6 3 C4.68 2.67 3.36 2.34 2 2 C2 2.99 2 3.98 2 5 C1.34 5 0.68 5 0 5 C0 3.35 0 1.7 0 0 Z " fill="#E4E4E5" transform="translate(37,49)"/>
<path d="M0 0 C1.52519276 0.08937803 3.04681929 0.24537146 4.5625 0.4375 C5.80193359 0.59025391 5.80193359 0.59025391 7.06640625 0.74609375 C7.70449219 0.82988281 8.34257813 0.91367187 9 1 C9 1.66 9 2.32 9 3 C2.9453125 3.1953125 2.9453125 3.1953125 1 3 C0.34 2.34 -0.32 1.68 -1 1 C-0.67 0.67 -0.34 0.34 0 0 Z " fill="#242123" transform="translate(47,46)"/>
<path d="M0 0 C0.33 0 0.66 0 1 0 C1 1.98 1 3.96 1 6 C-0.875 6.625 -0.875 6.625 -3 7 C-3.66 6.34 -4.32 5.68 -5 5 C-4.67 4.01 -4.34 3.02 -4 2 C-4 2.66 -4 3.32 -4 4 C-2.68 4 -1.36 4 0 4 C0 2.68 0 1.36 0 0 Z " fill="#B1B1B2" transform="translate(48,28)"/>
<path d="M0 0 C0.66 0.33 1.32 0.66 2 1 C1.67 2.32 1.34 3.64 1 5 C2.32 5.33 3.64 5.66 5 6 C2.6875 6.6875 2.6875 6.6875 0 7 C-1.8125 5.5625 -1.8125 5.5625 -3 4 C-2.34 4 -1.68 4 -1 4 C-0.67 2.68 -0.34 1.36 0 0 Z " fill="#C4C4C5" transform="translate(37,22)"/>
<path d="M0 0 C1.9375 0.8125 1.9375 0.8125 4 2 C4.33 2.99 4.66 3.98 5 5 C3.68 5 2.36 5 1 5 C0.67 3.35 0.34 1.7 0 0 Z " fill="#7F8078" transform="translate(47,19)"/>
<path d="M0 0 C3.25543229 0.34879632 4.01873107 1.02133261 6.25 3.5625 C6.8275 4.366875 7.405 5.17125 8 6 C2.33846154 4.52307692 2.33846154 4.52307692 0.625 1.875 C0.41875 1.25625 0.2125 0.6375 0 0 Z " fill="#ACACAE" transform="translate(19,15)"/>
<path d="M0 0 C-0.33 0.66 -0.66 1.32 -1 2 C-1.66 1.67 -2.32 1.34 -3 1 C-3 1.66 -3 2.32 -3 3 C-4.32 3 -5.64 3 -7 3 C-7 2.01 -7 1.02 -7 0 C-3.98968256 -0.93423645 -3.13349732 -1.04449911 0 0 Z " fill="#D2582E" transform="translate(53,36)"/>
<path d="M0 0 C0.99 0 1.98 0 3 0 C3.33 1.65 3.66 3.3 4 5 C1.03 4.505 1.03 4.505 -2 4 C-1.34 3.67 -0.68 3.34 0 3 C0 2.01 0 1.02 0 0 Z " fill="#9F9FA0" transform="translate(63,59)"/>
<path d="M0 0 C1.32 0.33 2.64 0.66 4 1 C4 1.99 4 2.98 4 4 C2.02 4.99 2.02 4.99 0 6 C0 4.02 0 2.04 0 0 Z " fill="#282828" transform="translate(16,54)"/>
<path d="M0 0 C0.99 0.33 1.98 0.66 3 1 C2.34 2.65 1.68 4.3 1 6 C0.34 6 -0.32 6 -1 6 C-1.042721 4.33388095 -1.04063832 2.66617115 -1 1 C-0.67 0.67 -0.34 0.34 0 0 Z " fill="#B3B4B4" transform="translate(63,52)"/>
<path d="M0 0 C2.125 0.375 2.125 0.375 4 1 C3.67 1.99 3.34 2.98 3 4 C2.01 3.67 1.02 3.34 0 3 C-0.66 4.32 -1.32 5.64 -2 7 C-2.125 4.625 -2.125 4.625 -2 2 C-1.34 1.34 -0.68 0.68 0 0 Z " fill="#2D2A2C" transform="translate(16,41)"/>
<path d="M0 0 C1.65 0 3.3 0 5 0 C4.67 1.32 4.34 2.64 4 4 C2.68 4 1.36 4 0 4 C0 2.68 0 1.36 0 0 Z " fill="#93949A" transform="translate(26,29)"/>
</svg>
